<svg id="_37449bf5-d031-45fd-ba60-0f71132b507b" data-name="37449bf5-d031-45fd-ba60-0f71132b507b" xmlns="http://www.w3.org/2000/svg"
  viewBox="0 0 194.68 30.77" preserveAspectRatio="xMinYMin meet">
  <defs>
    <style>
      .cls-1 {
        fill: #768393;
      }
      .cls-2 {
        fill: #336fb7;
      }
    </style>
  </defs>
  <title>WAM Global</title>
  <path class="cls-1" d="M14.46,12,10.19,25.48l-1.72-.36L1.63,7.93A2.74,2.74,0,0,0,0,6.3V5.4H1.66c1.75,0,4.25-.12,4.25-.12L6,5.4a3.79,3.79,0,0,0-.18,2.73L9.62,18.2a14.45,14.45,0,0,1,.57,1.8L13.51,9.5,13,7.93A2.69,2.69,0,0,0,11.32,6.3V5.4H13c1.75,0,4.25-.12,4.25-.12l.12.12a3.9,3.9,0,0,0-.18,2.73l3.48,10.13a17.74,17.74,0,0,1,.47,1.84L24.73,8.87c.42-1.34.27-2.14-1.37-2.58V5.4h4.87l.15.56s-1.22.56-2,3l-5.2,16.49-1.75-.36Z"
  />
  <path class="cls-1" d="M62.33,22.22l-6.5-16.9L54,5.7,47.12,23a2.29,2.29,0,0,1-2,1.49v1h5v-1.2c-.8,0-1.51-.3-1.19-1.19h0l1.31-3.45.51-.36h6.33l1.39,3.83c.33.89-.39,1.16-1.19,1.19v1.13h7l.13-1c-1.13-.15-1.57-.86-2.08-2.2M51,17.67l2.88-7.51c.18.59.51,1.66.74,2.29l1.87,5.23Z"
  />
  <path class="cls-1" d="M104.56,22.54h0L104,9.24V8.1c0-1.06.4-1.3,2.29-1.72V5.49h-2.23c-2.94,0-4.55-.12-4.55-.12l-.12.12s-.31,1.07-.87,2.73L94,19.33a17.26,17.26,0,0,0-.56-1.72L89.85,8.22C89.29,6.56,89,5.49,89,5.49l-.12-.12s-1.78.12-4.72.12H82v.89c2.14.48,2.35.71,2.29,2.17l-.59,13.9c-.06,1.07-.89,1.69-2.14,1.84v1.1h6v-1.1c-1.24-.15-2.07-.77-2.14-1.83h0l.51-12.62L86,8.64,92.24,25l1.19.36,6.71-16.55.51,13.78c0,1-.74,1.6-2,1.75v1.1h7.93v-1.1c-1.25-.15-2-.74-2-1.75"
  />
  <rect class="cls-2" x="36.21" width="1.35" height="30.77" />
  <rect class="cls-2" x="72.12" width="1.35" height="30.77" />
  <path class="cls-2" d="M131.86,5a51.91,51.91,0,0,1,5.84.66l-1.13,4.56h-1a5.79,5.79,0,0,0,.06-.83c0-2-1.13-3.31-4-3.31-5.87,0-9.33,5.39-9.33,10.43,0,4.68,2.59,7.84,7,7.84a12.69,12.69,0,0,0,3-.42l.83-4.29c.33-1.61-.36-2-2-2.18v-.74h6l.09.42S136,17.68,135.5,20l-1,4.86c-1.43.12-4.26.78-6.14.78-5,0-8.91-3-8.91-8.52A11.9,11.9,0,0,1,131.15,5Zm7.36,16.45,3.07-13.77a8,8,0,0,0,.24-1.37c0-.57-.24-1-1.16-1h-.74v-.8a15.61,15.61,0,0,0,4.59-1.28l.09.09A37.31,37.31,0,0,1,144.53,8l-3,13.53a8.88,8.88,0,0,0-.27,1.61c0,.48.24.72.6.72a3.7,3.7,0,0,0,1.85-1l.12.86a5.78,5.78,0,0,1-3.46,1.76,1.44,1.44,0,0,1-1.56-1.29,1.71,1.71,0,0,1,0-.32,14.06,14.06,0,0,1,.41-2.49Zm14.09-10c3.49,0,4.95,2.2,4.95,5,0,3.84-2.77,9.09-7.93,9.09-3.46,0-5-2.32-5-5.21,0-3.89,2.72-8.9,7.93-8.9Zm-2.86,13.14c3.28,0,5.18-4.95,5.18-8.55,0-2-.57-3.61-2.47-3.61-3.25,0-5.16,4.71-5.16,8.49,0,2,.55,3.65,2.45,3.65ZM160,21.14l3-13.5a8,8,0,0,0,.24-1.37c0-.57-.24-1-1.16-1h-.75v-.8A15.73,15.73,0,0,0,166,3.24l.09.09A35.57,35.57,0,0,1,165.32,8l-1,4.71c-.48,2-.69,2.62-.69,2.62h.06s2.32-3.93,5.21-3.93c1.73,0,3.25,1.4,3.25,4.47,0,4-2.62,9.65-8.28,9.65-1.49,0-2.53-.51-4.32-.33l-.09-.09A20.7,20.7,0,0,1,160,21.14Zm3.81,3.4c3.22,0,5.63-4.32,5.6-8.34,0-2.26-.78-3-1.58-3-2.23,0-4.59,4-5,5.93l-.63,2.68a15.73,15.73,0,0,0-.33,2.15,3.51,3.51,0,0,0,2,.58Zm9.78-3c0-4.14,3.13-10.07,8.55-10.07,1.37,0,2.38.36,3.52.36a4.12,4.12,0,0,0,.86-.09l.06.09a13.09,13.09,0,0,0-.92,3.07l-1.3,6.1a16.85,16.85,0,0,0-.42,2.23.59.59,0,0,0,.5.68h.13a3.68,3.68,0,0,0,1.82-1l.12.86A5.42,5.42,0,0,1,183,25.55c-1.16,0-1.43-.75-1.43-1.58a10.4,10.4,0,0,1,.39-2.35h-.06s-2.32,3.93-5.21,3.93c-1.69,0-3.06-1.28-3.06-4.05ZM183,16.67l.8-3.64a3.44,3.44,0,0,0-1.88-.63c-2.74,0-5.66,4.44-5.66,8.82,0,2,.63,2.53,1.43,2.53C180.07,23.77,182.31,19.83,183,16.67Zm5.6,4.74,3.07-13.77a8,8,0,0,0,.24-1.37c0-.57-.24-1-1.16-1H190v-.8a15.61,15.61,0,0,0,4.59-1.28l.09.09A37.31,37.31,0,0,1,193.9,8l-3,13.53a8.88,8.88,0,0,0-.27,1.61c0,.48.24.72.6.72a3.7,3.7,0,0,0,1.85-1l.12.86a5.78,5.78,0,0,1-3.46,1.76,1.44,1.44,0,0,1-1.56-1.29,1.71,1.71,0,0,1,0-.32,14.39,14.39,0,0,1,.4-2.45Z"
  />
</svg>
